<svg id="Layer_1" data-name="Layer 1" xmlns="http://www.w3.org/2000/svg" viewBox="0 0 231.1 33.85"><defs><style>.cls-1,.cls-3{isolation:isolate;}.cls-2{fill:#15a2b9;}.cls-3{font-size:8px;fill:#5d5f61;font-family:Candara-Bold, Candara;font-weight:700;}.cls-4{letter-spacing:-0.02em;}.cls-5{letter-spacing:0em;}.cls-6{letter-spacing:0.01em;}</style></defs><title>brand_plus</title><g class="cls-1"><path class="cls-2" d="M242.82,239.12h-8.69v4.66h2.18q1.35,0,1.35.6,0,.8-2,.8a9,9,0,0,1-5.1-1.28,4,4,0,0,1-1.89-3.46,4,4,0,0,1,2-3.47,9.38,9.38,0,0,1,5.25-1.34,13.26,13.26,0,0,1,3.93.68v-6.1a23.32,23.32,0,0,0-5-.62,19.19,19.19,0,0,0-11.09,3q-4.44,3-4.44,7.6t4.36,7.72a17.54,17.54,0,0,0,10.6,3.17,15.07,15.07,0,0,0,8.1-2q3.29-2,3.29-5Q245.63,241.45,242.82,239.12Z" transform="translate(-204.6 -229.59)"/><path class="cls-2" d="M251.23,231.73a5.14,5.14,0,0,0-2.53,4.57v8a5.14,5.14,0,0,0,2.67,4.67q2.67,1.62,7.73,1.62h7.17v-5.86h-6.13a7,7,0,0,1-2.11-.2.82.82,0,0,1-.52-.85.83.83,0,0,1,.51-.81,4.36,4.36,0,0,1,1.72-.24h6v-4.57h-5a5.86,5.86,0,0,1-2-.23.84.84,0,0,1-.56-.83q0-1,2.36-1h5.82V230.1h-7.93A13.14,13.14,0,0,0,251.23,231.73Z" transform="translate(-204.6 -229.59)"/><path class="cls-2" d="M274.83,231.69q-3.09,2.1-3.09,5a7.45,7.45,0,0,0,2,4.81q1.28,1.52,1.28,2a1.33,1.33,0,0,1-.8,1.15,3.94,3.94,0,0,1-2,.46,6,6,0,0,1-2.31-.56v5.94a14.51,14.51,0,0,0,4.36.68,13.91,13.91,0,0,0,7.76-2.07q3.18-2.07,3.18-5.06a6.62,6.62,0,0,0-1.89-4.24l-.7-.81a2.71,2.71,0,0,1-.81-1.56,1.48,1.48,0,0,1,.74-1.23,3,3,0,0,1,1.77-.51,7.41,7.41,0,0,1,1.53.23V230a16.42,16.42,0,0,0-3.71-.42A12.83,12.83,0,0,0,274.83,231.69Z" transform="translate(-204.6 -229.59)"/><polygon class="cls-2" points="83.17 6.4 90.16 6.4 90.16 21.02 99.28 21.02 99.28 6.4 106.25 6.4 106.25 0.51 83.17 0.51 83.17 6.4"/><path class="cls-2" d="M343.86,231.34a10,10,0,0,0-6.34-1.74,12.51,12.51,0,0,0-4.38.67,9.34,9.34,0,0,0-3.33,2.23,9.13,9.13,0,0,0-7.26-2.9,11.05,11.05,0,0,0-6.47,1.74,5.28,5.28,0,0,0-2.49,4.49v14.79h9.12V237.27q0-1.64,1.35-1.64a1.15,1.15,0,0,1,1,.33,2.37,2.37,0,0,1,.25,1.31v13.34h9.12V237.17q0-1.53,1.35-1.53a1.13,1.13,0,0,1,1,.32,2.45,2.45,0,0,1,.24,1.31v13.34h9.12V236.36A6,6,0,0,0,343.86,231.34Z" transform="translate(-204.6 -229.59)"/><path class="cls-2" d="M370.71,231.49q-2.58-1.9-8-1.9-5.59,0-8.68,2.1a6.71,6.71,0,0,0-3.09,5.88v13h9.12v-4.88h2.63v-5.41h-2.63v-2.55a1.89,1.89,0,0,1,2.13-2.13,2,2,0,0,1,1.53.47,2.49,2.49,0,0,1,.43,1.67v12.85h9.12V237.36Q373.29,233.4,370.71,231.49Z" transform="translate(-204.6 -229.59)"/><path class="cls-2" d="M397.61,231.64q-2.75-2-7.94-2a14.75,14.75,0,0,0-8.35,2.1,6.46,6.46,0,0,0-3.13,5.6v13.31h9.12v-13.1a1.68,1.68,0,0,1,1.93-1.88q2,0,2,1.88v13.1h9.12v-13.1A6.88,6.88,0,0,0,397.61,231.64Z" transform="translate(-204.6 -229.59)"/><polygon class="cls-2" points="198.54 0.51 198.54 6.4 205.53 6.4 205.53 21.02 214.66 21.02 214.66 6.4 221.62 6.4 221.62 0.51 198.54 0.51"/></g><text class="cls-3" transform="translate(0 31.62) scale(0.75 1)">GESTIÓN DE LOS MANTENIMIENTOS DE LOS EQUIPOS <tspan class="cls-4" x="165.59" y="0">T</tspan><tspan class="cls-5" x="169.61" y="0">RANSMISORES Y AUXILIARES DE RADI</tspan><tspan class="cls-6" x="285.89" y="0">O</tspan><tspan x="290.74" y="0">CUBA </tspan></text></svg>